<svg xmlns="http://www.w3.org/2000/svg" xmlns:xlink="http://www.w3.org/1999/xlink" viewBox="0 0 160.19 167.37"><defs><style>.cls-1{fill:url(#linear-gradient);}</style><linearGradient id="linear-gradient" y1="83.69" x2="160.19" y2="83.69" gradientUnits="userSpaceOnUse"><stop offset="0" stop-color="#cedc1c"/><stop offset="1" stop-color="#7cbe31"/></linearGradient></defs><title>Asset 1</title><g id="Layer_2" data-name="Layer 2"><g id="Layer_1-2" data-name="Layer 1"><path class="cls-1" d="M160.19,123.18c-5.88,10.38-14.59,17.68-24.29,23.81a131,131,0,0,1-51.1,19.07c-19.1,2.87-37.67,1.3-55.07-7.37-14.11-7-24.31-17.88-28.12-33.64C-1.63,111.64.25,98.54,5.18,85.82c8-20.54,21.45-37.06,37.82-51.43,14.88-13,31.43-23.33,50.36-29.52A91.89,91.89,0,0,1,124,0c8.8.19,17.43,1.71,25.22,6.45,10.32,6.28,12.8,15.13,9.49,26.32C155.87,42.38,149.48,49.67,142,56,116.94,77.11,87.09,88.67,56.39,98.46c-6.18,2-22,6.36-22,6.36s.59,4.43,1.28,9.78c1.17,9,6.37,20.8,12.75,26.34,10.14,8.79,22.09,12.47,35.29,13.44,22.25,1.63,41.58-5.87,59.42-18.24,5.28-3.66,10.17-7.9,15.25-11.86A19,19,0,0,1,160.19,123.18ZM34.79,99s25.92-9.79,37.79-15c21.26-9.22,40.17-21.81,54.26-40.61,5.56-7.42,10.17-15.37,9.59-25.18-.28-4.67-2.32-8.36-6.88-9.9a31.19,31.19,0,0,0-9.68-1.92A54.47,54.47,0,0,0,91.6,14.66C80.84,21.08,71.9,29.57,63.76,39,52.66,51.86,43.84,66,39,82.36A106.62,106.62,0,0,0,34.79,99Z"/></g></g></svg>