<svg xmlns="http://www.w3.org/2000/svg" viewBox="0 0 276.07 424.1"><defs><style>.cls-1{fill:#231e80;}</style></defs><title>Asset 1</title><g id="Layer_2" data-name="Layer 2"><g id="Layer_1-2" data-name="Layer 1"><path class="cls-1" d="M59.52,422.84c-25.63,1.93-45-11.48-54-37.61-7-20.31-6.9-41.12-2.13-61.67,17.26-74.33,58.39-131.68,124-171A108.12,108.12,0,0,1,180,137.16c31.16-1.06,52.28,25.91,43.45,55.8-4,13.67-12,24.8-22.53,34.19-19.18,17.12-41.48,29.12-65.35,38-23.4,8.66-47.28,16-70.9,24.09-1.92.66-4.37,2.24-5,3.94-7.11,20.92-10.45,42.57-7.83,64.46,3.14,26.14,23.83,37.48,49.73,28.82,12.73-4.25,23.4-11.89,33.72-20.11,5.6-4.47,11.18-9,16.47-13.82,3.23-3,6.08-3,9.2-.3,3.33,2.88,4.11,7.48,1.47,10.69-3.81,4.63-7.77,9.15-11.93,13.46-16.71,17.34-35.21,32.31-58.38,40-10.49,3.49-21.57,5.23-32.38,7.76Zm7.86-154.55,1.44,1.15c4.24-1.37,8.48-2.77,12.73-4.11,32.11-10.15,60-27.08,82.9-51.9,9.39-10.17,16.91-21.48,19.64-35.36,2.7-13.72-4.94-21.65-18.87-19.51-12.52,1.92-22.49,8.95-31.78,16.9C114.26,191.87,98.7,211.38,86,233.11,79.35,244.57,73.57,256.55,67.38,268.29Z"/><path class="cls-1" d="M158.63,111.58c11.81-27.92,26.55-52.46,45.74-74.29C215.08,25.1,226.35,13.4,240.93,6A55.59,55.59,0,0,1,261.24.14c10-.81,16.25,7.44,14.55,17.44-2.31,13.57-9,25-18,35.08-22.54,25.36-50.22,42.88-82.4,53.42Z"/><path class="cls-1" d="M61,111.54A255,255,0,0,1,86.11,64.12c14.71-21.58,30.84-42.05,53.42-56A58.09,58.09,0,0,1,161.26.22c12.11-1.73,19,6.94,16.49,19.1-2.54,12.41-8.69,23-16.91,32.42-23.41,26.82-52.55,44.76-86.35,55.41C70.4,108.44,66.34,109.79,61,111.54Z"/></g></g></svg>